<svg xmlns="http://www.w3.org/2000/svg" width="108" height="36" viewBox="0 0 108 36">
  <g id="poweredby_IdoBooking_onwhite" transform="translate(-1100.25 -322)">
    <rect id="Rectangle_1105" data-name="Rectangle 1105" width="108" height="36" rx="4" transform="translate(1100.25 322)" fill="#fff"/>
    <g id="Group_1295" data-name="Group 1295" transform="translate(283.324 55)">
      <path id="Path_2164" data-name="Path 2164" d="M.912,0h.941V-2.48h1.51A2.025,2.025,0,0,0,5.472-4.608a2,2,0,0,0-2.109-2.1H.912Zm.941-3.3V-5.89H3.221A1.186,1.186,0,0,1,4.513-4.608,1.21,1.21,0,0,1,3.211-3.3Zm4.285.883A2.517,2.517,0,0,0,8.731.114a2.517,2.517,0,0,0,2.594-2.527A2.508,2.508,0,0,0,8.731-4.921,2.508,2.508,0,0,0,6.137-2.413Zm.941,0a1.656,1.656,0,0,1,1.653-1.71,1.65,1.65,0,0,1,1.653,1.71A1.661,1.661,0,0,1,8.731-.684,1.666,1.666,0,0,1,7.078-2.413ZM13.4,0h1.026l.988-3.088c.076-.247.133-.523.133-.523h.019s.057.276.133.523L16.7,0h1.017l1.549-4.807H18.3L17.29-1.435a3.868,3.868,0,0,0-.114.513h-.019s-.057-.266-.133-.513L15.989-4.8h-.846L14.1-1.435a5,5,0,0,0-.123.513h-.019c-.009,0-.047-.266-.123-.513l-1-3.373h-.979Zm6.412-2.4A2.448,2.448,0,0,0,22.363.114,2.861,2.861,0,0,0,24.225-.57l-.38-.675a2.292,2.292,0,0,1-1.425.561,1.571,1.571,0,0,1-1.653-1.587h3.505s.028-.275.028-.4a2.046,2.046,0,0,0-2.08-2.251A2.356,2.356,0,0,0,19.817-2.4Zm.979-.56A1.377,1.377,0,0,1,22.2-4.19a1.134,1.134,0,0,1,1.159,1.226ZM25.422,0h.921V-1.967a2.921,2.921,0,0,1,.114-.864,1.458,1.458,0,0,1,1.349-1.131,1.327,1.327,0,0,1,.266.028v-.912a1.635,1.635,0,0,0-.237-.019,1.643,1.643,0,0,0-1.52,1.254H26.3a3.448,3.448,0,0,0,.019-.361v-.836h-.893Zm3.2-2.4A2.448,2.448,0,0,0,31.17.114,2.861,2.861,0,0,0,33.032-.57l-.38-.675a2.292,2.292,0,0,1-1.425.561,1.571,1.571,0,0,1-1.653-1.587h3.506s.028-.275.028-.4a2.046,2.046,0,0,0-2.081-2.251A2.356,2.356,0,0,0,28.624-2.4Zm.979-.56A1.377,1.377,0,0,1,31.008-4.19a1.134,1.134,0,0,1,1.159,1.226Zm4.313.56c0,1.492.817,2.518,2.118,2.518a1.684,1.684,0,0,0,1.577-.893h.019s-.01.133-.01.323V0h.874V-6.707h-.921v2.223a2.721,2.721,0,0,0,.019.323h-.019a1.6,1.6,0,0,0-1.482-.76A2.241,2.241,0,0,0,33.915-2.4Zm.94,0c0-1.093.627-1.72,1.387-1.72.912,0,1.359.855,1.359,1.71,0,1.226-.675,1.729-1.387,1.729C35.416-.684,34.855-1.359,34.855-2.4ZM42.38,0h.874V-.352a3.225,3.225,0,0,0-.019-.361h.019a1.728,1.728,0,0,0,1.51.827A2.253,2.253,0,0,0,46.949-2.4c0-1.492-.817-2.517-2.109-2.517A1.7,1.7,0,0,0,43.3-4.1h-.019s.019-.171.019-.409V-6.707H42.38Zm.893-2.385c0-1.225.665-1.729,1.387-1.729.8,0,1.359.674,1.359,1.72,0,1.092-.627,1.72-1.387,1.72C43.719-.675,43.273-1.53,43.273-2.385ZM47.405,1.7A1.682,1.682,0,0,0,48.336,2,1.652,1.652,0,0,0,49.894.865l2.251-5.672h-1L49.98-1.653c-.086.247-.162.57-.162.57H49.8s-.086-.332-.181-.58L48.412-4.807H47.377l2.014,4.75-.237.551a.982.982,0,0,1-.865.7,1.072,1.072,0,0,1-.561-.2Z" transform="translate(824.019 280)" fill="#222"/>
      <g id="Group_13" data-name="Group 13" transform="translate(824.931 283.44)">
        <path id="Path_16" data-name="Path 16" d="M3.24-13.189H5.488V-25.56H3.24Zm25.613,0h4.478c2.283,0,4.269-1.115,4.269-3.589a2.9,2.9,0,0,0-2-2.91v-.035a2.928,2.928,0,0,0,1.5-2.648c0-2.039-1.586-3.189-3.816-3.189H28.853ZM31.1-20.507v-3.119h2.143a1.428,1.428,0,0,1,1.568,1.533,1.477,1.477,0,0,1-1.533,1.586Zm0,5.384v-3.572h2.4A1.678,1.678,0,0,1,35.3-16.918a1.674,1.674,0,0,1-1.795,1.795Zm7.492-2.509a4.666,4.666,0,0,0,4.9,4.652,4.662,4.662,0,0,0,4.879-4.652,4.677,4.677,0,0,0-4.9-4.652A4.672,4.672,0,0,0,38.593-17.632Zm2.248,0a2.655,2.655,0,0,1,2.648-2.77,2.652,2.652,0,0,1,2.631,2.77,2.641,2.641,0,0,1-2.631,2.77A2.645,2.645,0,0,1,40.841-17.632Zm8.207,0a4.666,4.666,0,0,0,4.9,4.652,4.662,4.662,0,0,0,4.879-4.652,4.677,4.677,0,0,0-4.9-4.652A4.672,4.672,0,0,0,49.047-17.632Zm2.248,0a2.655,2.655,0,0,1,2.648-2.77,2.652,2.652,0,0,1,2.631,2.77,2.641,2.641,0,0,1-2.631,2.77A2.645,2.645,0,0,1,51.3-17.632Zm8.869,4.443h2.213v-3.886h1.15l2.352,3.886h2.544l-3.154-4.879V-18.1l2.805-3.973H65.618l-2.143,3.136h-1.1V-25.56H60.164Zm9.182-10.4h2.2V-25.56h-2.2Zm0,10.4h2.213v-8.886H69.346Zm4.217,0h2.213v-4.077a3.749,3.749,0,0,1,.157-1.185,2.452,2.452,0,0,1,2.387-1.812c1.133,0,1.411.732,1.411,1.812v5.262h2.2V-18.9c0-2.352-1.115-3.38-3.084-3.38a3.447,3.447,0,0,0-3.154,1.847h-.035a5.505,5.505,0,0,0,.035-.61v-1.028H73.563Zm11.151,1.2-.662,1.69a7.082,7.082,0,0,0,3.154.767c2.317,0,4.687-1.15,4.687-4.2v-8.346H89.819v.68a1.646,1.646,0,0,0,.017.244h-.052a3.02,3.02,0,0,0-2.631-1.133c-2.561,0-3.938,1.986-3.938,4.426s1.446,4.5,3.99,4.5a2.712,2.712,0,0,0,2.474-1.2h.035a4.28,4.28,0,0,0-.035.47v.523c0,1.586-1.15,2.161-2.509,2.161A5.972,5.972,0,0,1,84.714-11.987Zm2.962-3.241c-1.429,0-2.23-1.15-2.23-2.7,0-1.5.749-2.474,2.091-2.474,1.2,0,2.2.54,2.2,2.561C89.732-15.837,88.739-15.228,87.676-15.228Z" transform="translate(-3.24 25.56)" fill="#222"/>
        <path id="Path_19" data-name="Path 19" d="M11.484-17.632c0,2.753,1.533,4.652,3.938,4.652A3.086,3.086,0,0,0,18.21-14.5h.035a4.506,4.506,0,0,0-.035.575v.732H20.3V-25.56H18.088v3.9c0,.279.017.505.017.505H18.07a2.785,2.785,0,0,0-2.561-1.133C13.157-22.284,11.484-20.455,11.484-17.632Zm2.23,0c0-1.76,1.011-2.753,2.23-2.753,1.481,0,2.213,1.359,2.213,2.736,0,1.969-1.08,2.805-2.23,2.805C14.62-14.844,13.714-15.942,13.714-17.632Zm7.928,0a4.666,4.666,0,0,0,4.9,4.652,4.662,4.662,0,0,0,4.879-4.652,4.677,4.677,0,0,0-4.9-4.652A4.672,4.672,0,0,0,21.642-17.632Zm2.248,0a2.655,2.655,0,0,1,2.648-2.77,2.652,2.652,0,0,1,2.631,2.77,2.641,2.641,0,0,1-2.631,2.77A2.645,2.645,0,0,1,23.89-17.632Z" transform="translate(-7.494 25.56)" fill="#ffb82a"/>
        <circle id="Ellipse_3" data-name="Ellipse 3" cx="2.178" cy="2.178" r="2.178" transform="translate(90.391 8.184)" fill="#ffb82a"/>
      </g>
    </g>
  </g>
</svg>
