<svg xmlns="http://www.w3.org/2000/svg" width="184.2" height="34.3" viewBox="0 0 184.2 34.3"><g transform="translate(0 -0.6)"><path d="M184.2,11l-1.1-6.6-2.6.6a5.387,5.387,0,0,0-.7-1.3,3.515,3.515,0,0,0-2.7-1.3A5.071,5.071,0,0,0,173,4.5a9.41,9.41,0,0,0-1.2,2.2l.4-5.3L158,.6V1.7l-12.4,1,3.5,18.9a6.89,6.89,0,0,0-.3.8,18.1,18.1,0,0,0-1.1,6.3,5.107,5.107,0,0,0,1,3.4,3.773,3.773,0,0,0,3,1.2h.2l7.6.7v-.3l9.8-.5-.1,1,10.3-.4L184.2,11Z" fill="#231f20"/><path d="M159.8,1.5V6.1A7.943,7.943,0,0,1,161.7,5,10.29,10.29,0,0,1,166,4a3.562,3.562,0,0,1,2.8,1,4.479,4.479,0,0,1,.9,3v.7h0l-1.4,19.6.6-.3c.1-.1.3-.1.4-.2a15.1,15.1,0,0,1,.8-4.8l1.7-21-13.2-.8v.5Z" fill="#00a551"/><path d="M160.1,8.3l.8,1.1.1-1.2a2.639,2.639,0,0,1-.7.1Z" fill="#00a551"/><path d="M160.3,32.3a2.666,2.666,0,0,1-.7-1.4l-.2,2.2,1.8-.1A5.5,5.5,0,0,1,160.3,32.3Z" fill="#00a551"/><path d="M168,31.6a13.957,13.957,0,0,1-2.7,1.1l3.9-.2.1-1.7A4.11,4.11,0,0,1,168,31.6Z" fill="#00a551"/><path d="M182.6,5.1l-2,.5a5.7,5.7,0,0,1,.1,1.3,7.6,7.6,0,0,1-1.6,4.9,5.03,5.03,0,0,1-4,2.1,3.16,3.16,0,0,1-2.7-1.2,4.465,4.465,0,0,1-.8-1.7l-.3,3.4-.5,6.7a7.338,7.338,0,0,1,2.6-3.1,11.434,11.434,0,0,1,3.5-1.6,11.233,11.233,0,0,1,3.5-.7,1.689,1.689,0,0,1,1,.3.975.975,0,0,1,.4.9h0a1.366,1.366,0,0,1-.6,1.1,2.785,2.785,0,0,1-1.2.4l-.4,6.1v.1a16.546,16.546,0,0,1-.5,3.4c-.6,2.8-.9,3.2-1.3,3.5a8.166,8.166,0,0,1-4.5,1.7,3.773,3.773,0,0,1-3-1.2,1.38,1.38,0,0,1-.3-.4l-.2,2.1,9.2-.3,4.6-22.2Z" fill="#ec1c24"/><path d="M151.9,18.1a11.434,11.434,0,0,1,3.5-1.6,11.233,11.233,0,0,1,3.5-.7,1.689,1.689,0,0,1,1,.3c.1.1.2.2.2.3l.4-6.5-1.3-1.8V7.8a7.578,7.578,0,0,1-1.6,4.3,4.893,4.893,0,0,1-4,2.1,3.16,3.16,0,0,1-2.7-1.2,5.274,5.274,0,0,1-.9-3.2,7.6,7.6,0,0,1,1.6-4.9,5.071,5.071,0,0,1,4.1-2.1A3.424,3.424,0,0,1,158.4,4a4.592,4.592,0,0,1,.9,2.7V2.2l-13,1.1,3.3,17.6A5.931,5.931,0,0,1,151.9,18.1Z" fill="#f48120"/><path d="M159.6,18a2.785,2.785,0,0,1-1.2.4l-.4,6.1v.1c-.1.6-.1,1.2-.2,1.6a10.592,10.592,0,0,0,1-1.2,6.552,6.552,0,0,0,.8-1.3l.4-6.1A.781.781,0,0,1,159.6,18Z" fill="#f48120"/><path d="M156.2,31.6a9.45,9.45,0,0,1-2.4,1.3l5.2.5.3-4.8A17.422,17.422,0,0,1,156.2,31.6Z" fill="#f48120"/><path d="M175.2,12.8a3.955,3.955,0,0,0,3.1-1.7,6.847,6.847,0,0,0,1.4-4.2,3.727,3.727,0,0,0-.7-2.5,2.172,2.172,0,0,0-1.8-.8A3.989,3.989,0,0,0,174,5.3a6.847,6.847,0,0,0-1.4,4.2,4.023,4.023,0,0,0,.7,2.6A2.561,2.561,0,0,0,175.2,12.8Z" fill="#fff"/><path d="M153.6,13.1a3.955,3.955,0,0,0,3.1-1.7,6.847,6.847,0,0,0,1.4-4.2,3.727,3.727,0,0,0-.7-2.5,2.172,2.172,0,0,0-1.8-.8,3.989,3.989,0,0,0-3.2,1.7A6.847,6.847,0,0,0,151,9.8a3.56,3.56,0,0,0,.7,2.5A2.56,2.56,0,0,0,153.6,13.1Z" fill="#fff"/><path d="M180.7,16.6h-.3a9.273,9.273,0,0,0-3.2.7,10.6,10.6,0,0,0-3.2,1.5,8.1,8.1,0,0,0-2.7,3.8,14.84,14.84,0,0,0-1,5.7v.4l-.3.1-.6.3c-.6.3-1.1.5-1.5.7l-.8.2,1.6-21.2V8.1a3.523,3.523,0,0,0-.6-2.3,2.651,2.651,0,0,0-2-.7,9.959,9.959,0,0,0-3.9.9c-1.6.7-1.9,1.1-1.9,1.2.1,0,.3-.1.8-.2h0c.1,0,.2-.1.3-.1l.7-.2-1.3,16.9v.1a9.942,9.942,0,0,1-1.2,2.2,23.879,23.879,0,0,1-2.3,2.6l-1.4,1.3.4-1.9a18.289,18.289,0,0,0,.4-3.3h0v-.1l.5-6.8.4-.1a3.532,3.532,0,0,0,1.2-.4.1.1,0,0,0,.1-.1V17h-.3a9.273,9.273,0,0,0-3.2.7,10.6,10.6,0,0,0-3.2,1.5,8.1,8.1,0,0,0-2.7,3.8,16.255,16.255,0,0,0-1,5.9,3.666,3.666,0,0,0,.8,2.6,2.52,2.52,0,0,0,2.1.8,6.352,6.352,0,0,0,3.8-1.5,14.994,14.994,0,0,0,3.9-4.3l.2-.2h1.1v.6c0,.5-.1,1.1-.1,1.6,0,.6-.1,1.1-.1,1.4a2.445,2.445,0,0,0,.6,1.8,2.111,2.111,0,0,0,1.6.6,11.622,11.622,0,0,0,4.8-1.5q1.35-.75,2.1-1.2l.7-.5.2.8a2.618,2.618,0,0,0,.6,1.3,2.52,2.52,0,0,0,2.1.8,7.115,7.115,0,0,0,3.9-1.5,7.514,7.514,0,0,0,.9-2.9,30.03,30.03,0,0,0,.5-3.3h0v-.1l.5-6.8.4-.1a3.532,3.532,0,0,0,1.2-.4c.3-.1.4-.1.4-.3Z" fill="#fff"/><path d="M66,1.1a7.931,7.931,0,0,1,1.7.2A3.162,3.162,0,0,1,69,2a2.286,2.286,0,0,1,.7,1A2.768,2.768,0,0,1,70,4.3a2.768,2.768,0,0,1-.3,1.3A4.129,4.129,0,0,1,69,6.7a3.458,3.458,0,0,1-1.2.7,4.844,4.844,0,0,1-1.8.3H64.4v3.8H62.9V1.1Zm0,5.3a2.959,2.959,0,0,0,1-.2,1.612,1.612,0,0,0,.7-.4,1.794,1.794,0,0,0,.5-.7,2.388,2.388,0,0,0,.2-.9,2.035,2.035,0,0,0-.6-1.5A2.427,2.427,0,0,0,66,2.2H64.4V6.3l1.6.1Z" fill="#fff"/><path d="M74.7,4a4.013,4.013,0,0,1,1.5.3,2.979,2.979,0,0,1,1.1.7A3.458,3.458,0,0,1,78,6.2a4.145,4.145,0,0,1,.2,1.6A7.772,7.772,0,0,1,78,9.4a3.458,3.458,0,0,1-.7,1.2,4.44,4.44,0,0,1-1.1.8,3.339,3.339,0,0,1-1.5.3,4.013,4.013,0,0,1-1.5-.3,2.258,2.258,0,0,1-1.1-.8,3.458,3.458,0,0,1-.7-1.2,4.146,4.146,0,0,1-.3-1.6,4.145,4.145,0,0,1,.3-1.6A3.458,3.458,0,0,1,72.1,5a4.44,4.44,0,0,1,1.1-.8A3.645,3.645,0,0,1,74.7,4Zm0,6.5a1.865,1.865,0,0,0,1.6-.7,3.677,3.677,0,0,0,.5-2,3.677,3.677,0,0,0-.5-2,1.753,1.753,0,0,0-1.6-.7,1.865,1.865,0,0,0-1.6.7,2.981,2.981,0,0,0-.5,2,3.677,3.677,0,0,0,.5,2A1.753,1.753,0,0,0,74.7,10.5Z" fill="#fff"/><path d="M90.2,4.1l-2.4,7.4H86.7q-.15,0-.3-.3L84.8,6.4c0-.1-.1-.2-.1-.4,0-.1-.1-.2-.1-.4a1.445,1.445,0,0,1-.2.7L83,11.2a.319.319,0,0,1-.3.3H81.6L79.2,4.1h1.1a.367.367,0,0,1,.3.1c.1.1.1.1.1.2L82,8.9a4.331,4.331,0,0,0,.1.5c0,.2.1.3.1.5,0-.2.1-.3.1-.5.1-.2.1-.4.2-.5L84,4.4c0-.1.1-.1.1-.2s.1-.1.2-.1H85a.367.367,0,0,1,.3.1c.1.1.1.1.1.2L86.8,9a.764.764,0,0,1,.2.5,4.331,4.331,0,0,0,.1.5c0-.2.1-.3.1-.5a4.331,4.331,0,0,1,.1-.5l1.3-4.5c0-.1.1-.1.1-.2a.367.367,0,0,1,.3-.1h1.2Z" fill="#fff"/><path d="M97.6,10.4a2.651,2.651,0,0,1-.6.5c-.2.1-.5.3-.7.4a2.354,2.354,0,0,1-.8.2c-.3,0-.5.1-.8.1a3.194,3.194,0,0,1-1.4-.3,2.836,2.836,0,0,1-1.1-.8,2.4,2.4,0,0,1-.7-1.2,4.671,4.671,0,0,1-.3-1.7,5.9,5.9,0,0,1,.2-1.4A3.746,3.746,0,0,1,92.1,5a2.836,2.836,0,0,1,1.1-.8A5.9,5.9,0,0,1,94.6,4a4.3,4.3,0,0,1,1.2.2,3.328,3.328,0,0,1,1,.6,1.7,1.7,0,0,1,.6,1,3.178,3.178,0,0,1,.2,1.4c0,.2,0,.4-.1.4,0,.1-.1.1-.3.1H92.4a3.6,3.6,0,0,0,.2,1.1,2.177,2.177,0,0,0,.5.8,1.794,1.794,0,0,0,.7.5,2.92,2.92,0,0,0,.9.2,1.949,1.949,0,0,0,.8-.1,1.421,1.421,0,0,1,.6-.2c.2-.1.3-.2.4-.2a.5.5,0,0,1,.6,0ZM96.5,7a2.2,2.2,0,0,0-.1-.8c-.1-.2-.3-.4-.4-.6a1.275,1.275,0,0,0-.6-.4,1.949,1.949,0,0,0-.8-.1,1.978,1.978,0,0,0-1.4.5A2.026,2.026,0,0,0,92.6,7Z" fill="#fff"/><path d="M101,5.5a2.012,2.012,0,0,1,.9-1.1A1.5,1.5,0,0,1,103,4a.9.9,0,0,1,.5.1.758.758,0,0,1,.4.2l-.1,1.1a.215.215,0,0,1-.2.2h-.7a1.268,1.268,0,0,0-.6.1c-.2.1-.3.2-.5.3a2.181,2.181,0,0,0-.4.5l-.3.6v4.6H99.7V4.1h.8c.2,0,.3,0,.3.1a.367.367,0,0,1,.1.3Z" fill="#fff"/><path d="M111.3,10.4a2.651,2.651,0,0,1-.6.5c-.2.1-.5.3-.7.4a2.354,2.354,0,0,1-.8.2c-.3,0-.5.1-.8.1a3.194,3.194,0,0,1-1.4-.3,2.836,2.836,0,0,1-1.1-.8,2.4,2.4,0,0,1-.7-1.2,4.671,4.671,0,0,1-.3-1.7,5.9,5.9,0,0,1,.2-1.4,7.459,7.459,0,0,1,.7-1.2,4.44,4.44,0,0,1,1.1-.8,5.9,5.9,0,0,1,1.4-.2,4.3,4.3,0,0,1,1.2.2,3.328,3.328,0,0,1,1,.6,1.7,1.7,0,0,1,.6,1,3.178,3.178,0,0,1,.2,1.4c0,.2,0,.4-.1.4,0,.1-.1.1-.3.1h-4.8a3.6,3.6,0,0,0,.2,1.1,2.177,2.177,0,0,0,.5.8,1.794,1.794,0,0,0,.7.5,2.92,2.92,0,0,0,.9.2,1.949,1.949,0,0,0,.8-.1,1.421,1.421,0,0,1,.6-.2c.2-.1.3-.2.4-.2a.5.5,0,0,1,.6,0ZM110.1,7a2.2,2.2,0,0,0-.1-.8,2.092,2.092,0,0,0-.4-.6,1.275,1.275,0,0,0-.6-.4,1.949,1.949,0,0,0-.8-.1,1.978,1.978,0,0,0-1.4.5,2.026,2.026,0,0,0-.6,1.4Z" fill="#fff"/><path d="M119.5.8V11.5h-.9c-.2,0-.3-.1-.4-.3l-.1-.8a3.126,3.126,0,0,1-1.1.9,3.194,3.194,0,0,1-1.4.3,3.6,3.6,0,0,1-1.1-.2,2.757,2.757,0,0,1-.9-.7,6.658,6.658,0,0,1-.6-1.2,4.145,4.145,0,0,1-.2-1.6,6.8,6.8,0,0,1,.2-1.5,3.369,3.369,0,0,1,.6-1.2,2.723,2.723,0,0,1,1-.8,3.707,3.707,0,0,1,1.5-.4,3.6,3.6,0,0,1,1.1.2,2.407,2.407,0,0,1,.8.6V.8Zm-1.4,5.1a1.555,1.555,0,0,0-.8-.6,2.92,2.92,0,0,0-.9-.2,1.8,1.8,0,0,0-1.5.7,2.981,2.981,0,0,0-.5,2,4.121,4.121,0,0,0,.1,1.2,6.889,6.889,0,0,0,.3.8c.2.2.3.4.6.5a1.949,1.949,0,0,0,.8.1,2.016,2.016,0,0,0,1.1-.3,2.047,2.047,0,0,0,.8-.8Z" fill="#fff"/><path d="M127.3,5.1a7.006,7.006,0,0,1,1-.8,3.529,3.529,0,0,1,1.4-.3,2.663,2.663,0,0,1,1.2.3,5.5,5.5,0,0,1,.9.7,10.911,10.911,0,0,1,.6,1.1,3.415,3.415,0,0,1,.2,1.5,7.773,7.773,0,0,1-.2,1.6,5.17,5.17,0,0,1-.6,1.3,2,2,0,0,1-1,.8,2.768,2.768,0,0,1-1.3.3,1.7,1.7,0,0,1-.7-.1c-.2-.1-.4-.1-.5-.2-.2-.1-.3-.2-.5-.3l-.4-.4-.1.6c0,.2-.2.3-.4.3H126V.8h1.4l-.1,4.3Zm0,4.6a1.555,1.555,0,0,0,.8.6,2.92,2.92,0,0,0,.9.2,1.579,1.579,0,0,0,1.5-.7,4.064,4.064,0,0,0,.5-2.1,3.09,3.09,0,0,0-.5-1.9,1.612,1.612,0,0,0-1.3-.6,2.016,2.016,0,0,0-1.1.3,2.047,2.047,0,0,0-.8.8V9.7Z" fill="#fff"/><path d="M140.6,4.1l-4.1,9.5a.215.215,0,0,1-.2.2c-.1,0-.2.1-.3.1h-1l1.3-2.9-3-6.9h1.2a.367.367,0,0,1,.3.1c.1.1.1.1.1.2l1.9,4.4c0,.1.1.2.1.3s.1.2.1.3c0-.1.1-.2.1-.3s.1-.2.1-.3L139,4.4c0-.1.1-.1.2-.2a.31.31,0,0,1,.2-.1Z" fill="#fff"/><path d="M3.4,31.3H0V16.7H3.4Z" fill="#fff"/><path d="M13.3,31.3a.749.749,0,0,1-.5-.1,1.38,1.38,0,0,1-.3-.4l-.2-.8a4.349,4.349,0,0,1-.7.6c-.2.2-.5.3-.7.5a9.439,9.439,0,0,1-.9.3,3.083,3.083,0,0,1-1,.1,2.822,2.822,0,0,1-1.5-.4,2.94,2.94,0,0,1-1.2-1,6.712,6.712,0,0,1-.8-1.7,8.216,8.216,0,0,1-.2-2.3,7.8,7.8,0,0,1,.3-2.2,4.608,4.608,0,0,1,.9-1.7,3.6,3.6,0,0,1,1.4-1.1,5.263,5.263,0,0,1,1.8-.4,5.9,5.9,0,0,1,1.4.2,8.794,8.794,0,0,1,1,.6V16.2h3.1v15l-1.9.1Zm-3.1-2.2a1.268,1.268,0,0,0,.6-.1.764.764,0,0,0,.5-.2c.1-.1.3-.2.4-.3l.4-.4V23.7a1.374,1.374,0,0,0-.8-.5,2.353,2.353,0,0,0-.8-.2,1.884,1.884,0,0,0-.8.2,2.651,2.651,0,0,0-.6.5,3,3,0,0,0-.4,1,6.052,6.052,0,0,0-.2,1.5,6.15,6.15,0,0,0,.1,1.4,4.649,4.649,0,0,0,.3.9,1.205,1.205,0,0,0,.5.5C9.7,29,9.9,29.1,10.2,29.1Z" fill="#fff"/><path d="M22.2,20.8a5.382,5.382,0,0,1,2.2.4,4.517,4.517,0,0,1,1.7,1.1A4.991,4.991,0,0,1,27.2,24a5.381,5.381,0,0,1,.4,2.2,5.087,5.087,0,0,1-.4,2.2A6.7,6.7,0,0,1,26,30a4.991,4.991,0,0,1-1.7,1.1,5.087,5.087,0,0,1-2.2.4,5.382,5.382,0,0,1-2.2-.4,4.832,4.832,0,0,1-2.8-2.8,5.381,5.381,0,0,1-.4-2.2,5.087,5.087,0,0,1,.4-2.2,6.191,6.191,0,0,1,1.1-1.7,4.991,4.991,0,0,1,1.7-1.1A8.524,8.524,0,0,1,22.2,20.8Zm0,8.4a1.943,1.943,0,0,0,1.6-.8,4.617,4.617,0,0,0,.5-2.3,4.617,4.617,0,0,0-.5-2.3,2,2,0,0,0-3.2,0,4.528,4.528,0,0,0-.6,2.3,4.617,4.617,0,0,0,.5,2.3A1.879,1.879,0,0,0,22.2,29.2Z" fill="#fff"/><path d="M37.1,19.7c-.1.1-.2.3-.3.3a.6.6,0,0,1-.4.1.9.9,0,0,1-.5-.1l-.6-.3a6.89,6.89,0,0,0-.8-.3,3.083,3.083,0,0,0-1-.1,1.955,1.955,0,0,0-1.4.4,1.433,1.433,0,0,0-.5,1.1.908.908,0,0,0,.3.7,1.794,1.794,0,0,0,.7.5c.3.1.7.3,1,.4a8.4,8.4,0,0,1,1.2.4,6.117,6.117,0,0,1,1.2.5,3.592,3.592,0,0,1,1,.7,4.129,4.129,0,0,1,.7,1.1,3.808,3.808,0,0,1,.3,1.6,4.058,4.058,0,0,1-.4,1.9,3.956,3.956,0,0,1-1,1.5,4.355,4.355,0,0,1-1.6,1,5.382,5.382,0,0,1-2.2.4,6.6,6.6,0,0,1-1.4-.1A7.366,7.366,0,0,1,30,31a13.392,13.392,0,0,1-1.2-.6,3.915,3.915,0,0,1-1-.8l1-1.6.3-.3a.6.6,0,0,1,.4-.1,1.421,1.421,0,0,1,.6.2,4.348,4.348,0,0,0,.7.4,3.552,3.552,0,0,0,.9.4,3.73,3.73,0,0,0,1.2.2,1.955,1.955,0,0,0,1.4-.4,1.727,1.727,0,0,0,.5-1.3,1.135,1.135,0,0,0-.3-.8,1.794,1.794,0,0,0-.7-.5,10.375,10.375,0,0,0-1-.4,5.638,5.638,0,0,1-1.2-.4,6.117,6.117,0,0,1-1.2-.5,2.539,2.539,0,0,1-1-.8,4.728,4.728,0,0,1-.7-1.2,4.309,4.309,0,0,1-.3-1.7,4.529,4.529,0,0,1,.3-1.6,3.316,3.316,0,0,1,1-1.4,8.636,8.636,0,0,1,1.6-1,4.638,4.638,0,0,1,2.1-.4,5.7,5.7,0,0,1,1.3.1l1.2.3a5.359,5.359,0,0,1,1.1.5l.9.6Z" fill="#fff"/><path d="M44.3,20.8a5.822,5.822,0,0,1,1.9.3,3.766,3.766,0,0,1,1.5.9,5.6,5.6,0,0,1,1,1.5,4.433,4.433,0,0,1,.3,2v.6c0,.1-.1.3-.1.4l-.2.2c-.1,0-.2.1-.3.1h-6a3.055,3.055,0,0,0,.8,1.9,2.352,2.352,0,0,0,1.7.6,2.22,2.22,0,0,0,.9-.1c.2-.1.5-.2.7-.3l.6-.3a.9.9,0,0,1,.5-.1.864.864,0,0,1,.6.3l.9,1.1a4.064,4.064,0,0,1-1,.9,9.744,9.744,0,0,1-1.1.5l-1.2.3c-.4,0-.8.1-1.1.1a5.222,5.222,0,0,1-2.1-.4,4.517,4.517,0,0,1-1.7-1.1,3.858,3.858,0,0,1-1.1-1.7,6.051,6.051,0,0,1-.4-2.4,4.477,4.477,0,0,1,.4-2,4.355,4.355,0,0,1,1-1.6,4.569,4.569,0,0,1,1.6-1.1A2.313,2.313,0,0,1,44.3,20.8Zm0,2.1a1.978,1.978,0,0,0-1.4.5,2.633,2.633,0,0,0-.7,1.5h3.9a1.7,1.7,0,0,0-.1-.7l-.3-.6a.918.918,0,0,0-.6-.4A.984.984,0,0,0,44.3,22.9Z" fill="#fff"/><path d="M53.7,16.3v15H50.6v-15Z" fill="#fff"/><path d="M59.2,16.3v15H56v-15Z" fill="#fff"/><path d="M64.4,31.3v-15h5.5a9.78,9.78,0,0,1,2.6.3,7.5,7.5,0,0,1,1.8.8,2.56,2.56,0,0,1,1,1.3,4.671,4.671,0,0,1,.3,1.7,3.4,3.4,0,0,1-.1,1,2.044,2.044,0,0,1-.5.9,2.7,2.7,0,0,1-.8.7,6.658,6.658,0,0,1-1.2.6,3.637,3.637,0,0,1,2.2,1.2,2.817,2.817,0,0,1,.7,2.1,3.922,3.922,0,0,1-.4,1.8,3.815,3.815,0,0,1-1.1,1.4,7.677,7.677,0,0,1-1.8,1,6.092,6.092,0,0,1-2.4.3H64.4Zm3.5-8.7h1.8a3.083,3.083,0,0,0,1-.1,6.891,6.891,0,0,0,.8-.3,1.024,1.024,0,0,0,.5-.6,2.388,2.388,0,0,0,.2-.9,2.22,2.22,0,0,0-.1-.9,2.092,2.092,0,0,0-.4-.6,4.875,4.875,0,0,0-.7-.3,3.083,3.083,0,0,0-1-.1H68v3.8Zm0,2.3v3.7h2.4a3.087,3.087,0,0,0,1.1-.2,1.794,1.794,0,0,0,.7-.5.864.864,0,0,0,.3-.6,1.7,1.7,0,0,0,.1-.7,1.483,1.483,0,0,0-.1-.7,2.092,2.092,0,0,0-.4-.6.908.908,0,0,0-.7-.3,3.75,3.75,0,0,0-1.1-.1H67.9Z" fill="#fff"/><path d="M82.7,20.5a5.381,5.381,0,0,1,2.2.4,4.832,4.832,0,0,1,2.8,2.8,5.558,5.558,0,0,1,.4,2.3,5.558,5.558,0,0,1-.4,2.3A4.181,4.181,0,0,1,86.6,30a7.119,7.119,0,0,1-1.7,1.1,5.381,5.381,0,0,1-2.2.4,5.087,5.087,0,0,1-2.2-.4A4.991,4.991,0,0,1,78.8,30a4.517,4.517,0,0,1-1.1-1.7,7.308,7.308,0,0,1-.4-2.3,5.867,5.867,0,0,1,.4-2.3A4.181,4.181,0,0,1,78.8,22a6.191,6.191,0,0,1,1.7-1.1A5.087,5.087,0,0,1,82.7,20.5Zm0,8.6a1.816,1.816,0,0,0,1.6-.8,4.772,4.772,0,0,0,.5-2.4,5.053,5.053,0,0,0-.5-2.4,1.816,1.816,0,0,0-1.6-.8,2,2,0,0,0-1.7.8,4.772,4.772,0,0,0-.5,2.4,5.053,5.053,0,0,0,.5,2.4A2,2,0,0,0,82.7,29.1Z" fill="#fff"/><path d="M94.6,20.5a5.381,5.381,0,0,1,2.2.4,4.832,4.832,0,0,1,2.8,2.8A5.558,5.558,0,0,1,100,26a5.558,5.558,0,0,1-.4,2.3A4.181,4.181,0,0,1,98.5,30a7.119,7.119,0,0,1-1.7,1.1,5.381,5.381,0,0,1-2.2.4,5.087,5.087,0,0,1-2.2-.4A4.991,4.991,0,0,1,90.7,30a4.517,4.517,0,0,1-1.1-1.7,5.558,5.558,0,0,1-.4-2.3,5.867,5.867,0,0,1,.4-2.3A4.181,4.181,0,0,1,90.7,22a6.191,6.191,0,0,1,1.7-1.1A5.087,5.087,0,0,1,94.6,20.5Zm0,8.6a1.816,1.816,0,0,0,1.6-.8,4.772,4.772,0,0,0,.5-2.4,5.053,5.053,0,0,0-.5-2.4,1.816,1.816,0,0,0-1.6-.8,2,2,0,0,0-1.7.8,4.772,4.772,0,0,0-.5,2.4,5.053,5.053,0,0,0,.5,2.4A2.136,2.136,0,0,0,94.6,29.1Z" fill="#fff"/><path d="M105,15.9v8.6h.5a.749.749,0,0,0,.5-.1l.3-.3,2-3c.1-.2.3-.3.4-.4a1.268,1.268,0,0,1,.6-.1h2.9l-2.8,3.8c-.1.2-.3.3-.4.5-.2.1-.3.3-.5.4a2.361,2.361,0,0,1,.8.9l3,5.1h-2.9a1.268,1.268,0,0,1-.6-.1.781.781,0,0,1-.4-.4l-2-3.8q-.15-.3-.3-.3a.749.749,0,0,0-.5-.1H105v4.7h-3.2V15.9Z" fill="#fff"/><path d="M117.3,17.7a1.445,1.445,0,0,1-.2.7,1.838,1.838,0,0,1-1,1,1.949,1.949,0,0,1-.8.1,1.483,1.483,0,0,1-.7-.1,1.838,1.838,0,0,1-1-1,1.7,1.7,0,0,1-.1-.7,1.483,1.483,0,0,1,.1-.7,1.838,1.838,0,0,1,1-1,1.7,1.7,0,0,1,.7-.1,2.2,2.2,0,0,1,.8.1,1.838,1.838,0,0,1,1,1A.844.844,0,0,1,117.3,17.7Zm-.4,2.9V31.3h-3.2V20.6Z" fill="#fff"/><path d="M119.5,31.3V20.6h2a.749.749,0,0,1,.5.1,1.381,1.381,0,0,1,.3.4l.2.6a2.651,2.651,0,0,1,.6-.5,2.506,2.506,0,0,1,.7-.4c.3-.1.5-.2.8-.3a3.083,3.083,0,0,1,1-.1,3.339,3.339,0,0,1,1.5.3,4.44,4.44,0,0,1,1.1.8,5.387,5.387,0,0,1,.7,1.3,4.145,4.145,0,0,1,.2,1.6v6.8H126V24.4a1.594,1.594,0,0,0-.4-1.2,1.246,1.246,0,0,0-1.1-.4,2.959,2.959,0,0,0-1,.2l-.9.6v7.6h-3.1Z" fill="#fff"/><path d="M135.2,20.4a5.283,5.283,0,0,1,1.3.1,3.582,3.582,0,0,1,1.1.4h3.2v1.2c0,.2,0,.3-.1.4a.764.764,0,0,1-.5.2l-.8.2a3.083,3.083,0,0,1,.1,1,3.194,3.194,0,0,1-.3,1.4,3.126,3.126,0,0,1-.9,1.1,4.58,4.58,0,0,1-1.4.7,4.954,4.954,0,0,1-1.7.2,2.483,2.483,0,0,1-.9-.1.664.664,0,0,0-.4.5c0,.2.1.3.3.4a6.372,6.372,0,0,0,.7.2,4.034,4.034,0,0,0,1.1,0,4.869,4.869,0,0,1,1.2.1,5.019,5.019,0,0,1,1.2.2,3.582,3.582,0,0,1,1.1.4,1.779,1.779,0,0,1,.7.8,4.155,4.155,0,0,1,.3,1.3,3.194,3.194,0,0,1-.3,1.4,2.94,2.94,0,0,1-1,1.2,6.8,6.8,0,0,1-1.7.9,5.592,5.592,0,0,1-2.3.3,13.785,13.785,0,0,1-2.2-.2,5.213,5.213,0,0,1-1.5-.6,2.581,2.581,0,0,1-.9-.9,2.016,2.016,0,0,1-.3-1.1,1.594,1.594,0,0,1,.4-1.2,3.6,3.6,0,0,1,1.2-.8l-.6-.6a2.388,2.388,0,0,1-.2-.9.9.9,0,0,1,.1-.5,1.332,1.332,0,0,1,.3-.5c.1-.2.3-.3.4-.5a2.092,2.092,0,0,1,.6-.4,3.039,3.039,0,0,1-1.3-1.2,3.371,3.371,0,0,1-.5-1.7,3.194,3.194,0,0,1,.3-1.4,3.126,3.126,0,0,1,.9-1.1,6.109,6.109,0,0,1,1.4-.7A5.845,5.845,0,0,1,135.2,20.4Zm2.4,11.3a.52.52,0,0,0-.2-.4c-.1-.1-.3-.2-.4-.3a1.268,1.268,0,0,0-.6-.1h-1.7a2.768,2.768,0,0,1-.9-.1,1.205,1.205,0,0,0-.5.5,1.421,1.421,0,0,0-.2.6c0,.2,0,.3.1.4l.3.3a1.445,1.445,0,0,0,.7.2,6.1,6.1,0,0,0,2.2,0,6.372,6.372,0,0,0,.7-.2.781.781,0,0,0,.4-.4A1.087,1.087,0,0,0,137.6,31.7Zm-2.4-6.3a1.246,1.246,0,0,0,1.1-.4,1.777,1.777,0,0,0,.4-1,1.16,1.16,0,0,0-.4-1,1.6,1.6,0,0,0-1.1-.4,1.246,1.246,0,0,0-1.1.4,1.777,1.777,0,0,0-.4,1,1.268,1.268,0,0,0,.1.6c.1.2.1.3.3.4a2.186,2.186,0,0,0,.5.3C134.7,25.4,135,25.4,135.2,25.4Z" fill="#fff"/></g></svg>