<svg xmlns="http://www.w3.org/2000/svg" width="213.8" height="57.9" viewBox="0 0 213.8 57.9"><path d="M203.6,57.9H10.2C4.6,57.9,0,54,0,49.3V8.6C0,3.9,4.6,0,10.2,0H203.6c5.6,0,10.2,3.9,10.2,8.6V49.3C213.8,54,209.2,57.9,203.6,57.9Z" fill="#e9e9e9"/><path d="M210.6,53.8a6.542,6.542,0,0,0,1.9-4.5V8.6A7.168,7.168,0,0,0,211,4.4a9.065,9.065,0,0,0-6.5-3.2c-.2,0-.5-.1-.8-.1H10.2c-4.9,0-8.9,3.4-8.9,7.5V49.3a6.542,6.542,0,0,0,1.9,4.5,4.558,4.558,0,0,1-.5-2.3V8.6c0-3.5,3.3-6.3,7.5-6.3H203.5c4.2,0,7.5,2.8,7.5,6.3V51.5A4.5,4.5,0,0,1,210.6,53.8Z" fill="#fff"/><path d="M203.6,1.1c4.9,0,8.9,3.3,8.9,7.5V49.3c0,4.1-3.9,7.5-8.9,7.5H10.2c-4.9,0-8.9-3.3-8.9-7.5V8.6c0-4.1,3.9-7.5,8.9-7.5H203.6m0-1.1H10.2C4.6,0,0,3.9,0,8.6V49.3c0,4.7,4.6,8.6,10.2,8.6H203.6c5.6,0,10.2-3.9,10.2-8.6V8.6c0-4.7-4.6-8.6-10.2-8.6Z" fill="#acacac"/><path d="M197.8,22.5l-1.1-6.6-2.6.6a5.387,5.387,0,0,0-.7-1.3,3.515,3.515,0,0,0-2.7-1.3,5.071,5.071,0,0,0-4.1,2.1,9.41,9.41,0,0,0-1.2,2.2l.4-5.3L171.4,12v1.1l-12.4,1L162.5,33a6.89,6.89,0,0,0-.3.8,18.1,18.1,0,0,0-1.1,6.3,5.107,5.107,0,0,0,1,3.4,3.773,3.773,0,0,0,3,1.2h.2l7.6.7v-.3l9.8-.5-.1,1,10.3-.4,4.9-22.7Z" fill="#231f20"/><rect width="1.2" height="0.5" transform="translate(159.161 23.112) rotate(-11.128)" fill="#231f20"/><path d="M160.5,23.8l-1.3-.2.1.5h.3l.1.4-.2.1.1.5,1.1-.7Zm-.6.6-.1-.3.4.1h0Z" fill="#231f20"/><rect width="1.2" height="0.5" transform="matrix(0.981, -0.192, 0.192, 0.981, 159.456, 25.128)" fill="#231f20"/><rect width="0.3" height="0.5" transform="translate(160.054 25.724) rotate(-11.128)" fill="#231f20"/><path d="M160.1,27.4h.2c.1,0,.1,0,.2-.1l.1-.1v-.6h0v.6l.3-.1v-.4c0-.1,0-.2-.1-.2,0-.1-.1-.1-.1-.2a.1.1,0,0,0-.1-.1h-.2c-.1,0-.1,0-.2.1l-.1.1v.5a.1.1,0,0,1-.1.1h-.1v-.5l-.3.1v.6c0,.1,0,.1.1.2,0,.1.1.1.1.2C160,27.3,160.1,27.3,160.1,27.4Z" fill="#231f20"/><path d="M161.2,27.7l-1.3-.2.1.5h.3l.1.4-.2.1.1.5,1.1-.7Zm-.5.5-.1-.3.4.1h0Z" fill="#231f20"/><rect width="0.3" height="0.4" transform="translate(160.266 29.041) rotate(-11.011)" fill="#231f20"/><path d="M160.7,30.2V30l.1-.1h.2l.1.1v.2l.3-.1v-.3a.52.52,0,0,0-.2-.4c-.1-.1-.2-.1-.4-.1s-.3.1-.3.2a.3.3,0,0,0,0,.4v.2s0,.1.2.1l.2-.1C160.8,30.3,160.8,30.3,160.7,30.2Z" fill="#231f20"/><path d="M161.2,31.6c.1,0,.3-.1.3-.2a.3.3,0,0,0,0-.4.52.52,0,0,0-.2-.4c-.1-.1-.2-.1-.4-.1s-.3.1-.3.2a.3.3,0,0,0,0,.4.52.52,0,0,0,.2.4A.756.756,0,0,0,161.2,31.6Zm-.3-.6a.31.31,0,0,0,.2-.1h.1a.1.1,0,0,1,.1.1v.1H161c-.1,0-.1,0-.1-.1Z" fill="#231f20"/><path d="M161.8,33.2a.1.1,0,0,0,.1-.1l.1-.1v-.2c0-.1,0-.1-.1-.2a.1.1,0,0,0-.1-.1h0l.1-.1v-.2c0-.1,0-.1-.1-.2a.349.349,0,0,0-.2-.1h.2l-.1-.4-.9.2.1.4.5-.1h.1v.2h-.1l-.5.1.1.4.5-.1h.1v.2h-.1l-.5.1.1.4.5-.1Z" fill="#231f20"/><path d="M197.9,39.7h0a3.116,3.116,0,0,0-3.1,3.1,3.052,3.052,0,0,0,3.1,3.1,3.116,3.116,0,0,0,3.1-3.1A3.183,3.183,0,0,0,197.9,39.7Zm0,5.8a2.582,2.582,0,0,1-2.6-2.6,2.5,2.5,0,0,1,2.5-2.6h0a2.5,2.5,0,0,1,2.5,2.6A2.419,2.419,0,0,1,197.9,45.5Z" fill="#231f20"/><path d="M198.6,42.9h0c.4-.2.7-.4.7-.8a.779.779,0,0,0-.3-.7c-.2-.2-.5-.3-1.2-.3-.5,0-1,.1-1.3.1v3.3h.8V43.2h.4a.666.666,0,0,1,.7.5,2.192,2.192,0,0,0,.3.8h.8c-.1-.1-.1-.3-.2-.8C199.1,43.3,198.9,43,198.6,42.9Zm-.9-.2h-.4v-.9h.4c.5,0,.7.2.7.5C198.5,42.6,198.1,42.7,197.7,42.7Z" fill="#231f20"/><path d="M173.5,13v4.6a7.943,7.943,0,0,1,1.9-1.1,10.29,10.29,0,0,1,4.3-1,3.562,3.562,0,0,1,2.8,1,4.479,4.479,0,0,1,.9,3v.7h0L182,39.8l.6-.3c.1-.1.3-.1.4-.2a15.1,15.1,0,0,1,.8-4.8l1.7-21-13.2-.8v.5Z" fill="#00a551"/><path d="M173.7,19.8l.8,1.1.1-1.2a2.639,2.639,0,0,1-.7.1Z" fill="#00a551"/><path d="M174,43.8a2.666,2.666,0,0,1-.7-1.4l-.2,2.2,1.8-.1A5.5,5.5,0,0,1,174,43.8Z" fill="#00a551"/><path d="M181.7,43.1a13.956,13.956,0,0,1-2.7,1.1l3.9-.2.1-1.7A5.669,5.669,0,0,1,181.7,43.1Z" fill="#00a551"/><path d="M196.3,16.6l-2,.5a5.7,5.7,0,0,1,.1,1.3,7.6,7.6,0,0,1-1.6,4.9,4.893,4.893,0,0,1-4,2.1,3.16,3.16,0,0,1-2.7-1.2,4.465,4.465,0,0,1-.8-1.7l-.3,3.4-.5,6.7a7.338,7.338,0,0,1,2.6-3.1,11.434,11.434,0,0,1,3.5-1.6,11.233,11.233,0,0,1,3.5-.7,1.689,1.689,0,0,1,1,.3.975.975,0,0,1,.4.9h0a1.366,1.366,0,0,1-.6,1.1,2.785,2.785,0,0,1-1.2.4l-.4,6.1v.1a16.546,16.546,0,0,1-.5,3.4c-.6,2.8-.9,3.2-1.3,3.5a8.166,8.166,0,0,1-4.5,1.7,3.773,3.773,0,0,1-3-1.2,1.38,1.38,0,0,1-.3-.4l-.2,2.1,9.2-.3,4.6-22.2Z" fill="#ec1c24"/><path d="M165.5,29.6A11.434,11.434,0,0,1,169,28a11.233,11.233,0,0,1,3.5-.7,1.689,1.689,0,0,1,1,.3c.1.1.2.2.2.3l.4-6.4-1.3-1.8v-.3a7.578,7.578,0,0,1-1.6,4.3,4.893,4.893,0,0,1-4,2.1,3.16,3.16,0,0,1-2.7-1.2,5.075,5.075,0,0,1-.9-3.2,7.6,7.6,0,0,1,1.6-4.9,5.071,5.071,0,0,1,4.1-2.1,3.424,3.424,0,0,1,2.7,1.2,4.592,4.592,0,0,1,.9,2.7V13.8l-13,1.1,3.3,17.6A6.327,6.327,0,0,1,165.5,29.6Z" fill="#f48120"/><path d="M173.3,29.5a2.785,2.785,0,0,1-1.2.4l-.4,6.1v.1c-.1.6-.1,1.2-.2,1.6a10.593,10.593,0,0,0,1-1.2,6.552,6.552,0,0,0,.8-1.3l.4-6.1Z" fill="#f48120"/><path d="M169.8,43.1a9.449,9.449,0,0,1-2.4,1.3l5.2.5.3-4.8A14.616,14.616,0,0,1,169.8,43.1Z" fill="#f48120"/><path d="M188.8,24.3a3.955,3.955,0,0,0,3.1-1.7,6.847,6.847,0,0,0,1.4-4.2,3.727,3.727,0,0,0-.7-2.5,2.055,2.055,0,0,0-1.8-.8,3.989,3.989,0,0,0-3.2,1.7,6.847,6.847,0,0,0-1.4,4.2,3.56,3.56,0,0,0,.7,2.5A2.56,2.56,0,0,0,188.8,24.3Z" fill="#fff"/><path d="M167.3,24.5a3.955,3.955,0,0,0,3.1-1.7,6.847,6.847,0,0,0,1.4-4.2,3.727,3.727,0,0,0-.7-2.5,2.055,2.055,0,0,0-1.8-.8,3.989,3.989,0,0,0-3.2,1.7,6.847,6.847,0,0,0-1.4,4.2,3.56,3.56,0,0,0,.7,2.5A2.129,2.129,0,0,0,167.3,24.5Z" fill="#fff"/><path d="M194.3,28.1H194a9.273,9.273,0,0,0-3.2.7,10.6,10.6,0,0,0-3.2,1.5,8.1,8.1,0,0,0-2.7,3.8,14.84,14.84,0,0,0-1,5.7v.4l-.3.1-.6.3c-.6.3-1.1.5-1.5.7l-.8.2,1.6-21.2v-.7a3.523,3.523,0,0,0-.6-2.3,2.651,2.651,0,0,0-2-.7,9.959,9.959,0,0,0-3.9.9c-1.6.7-1.9,1.1-1.9,1.2.1,0,.3-.1.8-.2h0c.1,0,.2-.1.3-.1l.7-.2L174.4,35v.1a9.942,9.942,0,0,1-1.2,2.2,23.879,23.879,0,0,1-2.3,2.6l-1.4,1.3.4-1.9a18.289,18.289,0,0,0,.4-3.3h0v-.1l.5-6.8.4-.1a3.532,3.532,0,0,0,1.2-.4.1.1,0,0,0,.1-.1v-.1h-.3a9.273,9.273,0,0,0-3.2.7,10.6,10.6,0,0,0-3.2,1.5,8.1,8.1,0,0,0-2.7,3.8,16.255,16.255,0,0,0-1,5.9,3.666,3.666,0,0,0,.8,2.6,2.52,2.52,0,0,0,2.1.8,6.352,6.352,0,0,0,3.8-1.5,14.994,14.994,0,0,0,3.9-4.3l.2-.2H174v.6c0,.5-.1,1.1-.1,1.6,0,.6-.1,1.1-.1,1.4a2.445,2.445,0,0,0,.6,1.8,2.111,2.111,0,0,0,1.6.6,11.622,11.622,0,0,0,4.8-1.5q1.35-.75,2.1-1.2l.7-.5.2.8a2.618,2.618,0,0,0,.6,1.3,2.52,2.52,0,0,0,2.1.8,7.115,7.115,0,0,0,3.9-1.5,7.514,7.514,0,0,0,.9-2.9,30.03,30.03,0,0,0,.5-3.3h0v-.1l.5-6.8.4-.1a3.532,3.532,0,0,0,1.2-.4c.4,0,.4-.1.4-.2Z" fill="#fff"/><path d="M16.4,42.4H13V27.8h3.4Z"/><path d="M26.3,42.4a.749.749,0,0,1-.5-.1,1.38,1.38,0,0,1-.3-.4l-.2-.8a4.349,4.349,0,0,1-.7.6c-.2.2-.5.3-.7.5a9.439,9.439,0,0,1-.9.3,3.083,3.083,0,0,1-1,.1,2.822,2.822,0,0,1-1.5-.4,2.94,2.94,0,0,1-1.2-1,6.712,6.712,0,0,1-.8-1.7,8.216,8.216,0,0,1-.2-2.3,7.8,7.8,0,0,1,.3-2.2,4.608,4.608,0,0,1,.9-1.7,3.6,3.6,0,0,1,1.4-1.1,5.263,5.263,0,0,1,1.8-.4,5.9,5.9,0,0,1,1.4.2,8.794,8.794,0,0,1,1,.6V27.3h3.1v15l-1.9.1Zm-3.1-2.2a1.268,1.268,0,0,0,.6-.1.764.764,0,0,0,.5-.2c.1-.1.3-.2.4-.3l.4-.4V34.8a1.374,1.374,0,0,0-.8-.5,2.354,2.354,0,0,0-.8-.2,1.884,1.884,0,0,0-.8.2,2.651,2.651,0,0,0-.6.5,3,3,0,0,0-.4,1,6.052,6.052,0,0,0-.2,1.5,6.15,6.15,0,0,0,.1,1.4,4.649,4.649,0,0,0,.3.9,1.205,1.205,0,0,0,.5.5C22.7,40.1,22.9,40.2,23.2,40.2Z"/><path d="M35.2,31.9a5.382,5.382,0,0,1,2.2.4,4.517,4.517,0,0,1,1.7,1.1,4.991,4.991,0,0,1,1.1,1.7,5.382,5.382,0,0,1,.4,2.2,5.087,5.087,0,0,1-.4,2.2A6.7,6.7,0,0,1,39,41.1a4.991,4.991,0,0,1-1.7,1.1,5.087,5.087,0,0,1-2.2.4,5.381,5.381,0,0,1-2.2-.4,4.832,4.832,0,0,1-2.8-2.8,5.381,5.381,0,0,1-.4-2.2,5.087,5.087,0,0,1,.4-2.2,6.191,6.191,0,0,1,1.1-1.7,4.991,4.991,0,0,1,1.7-1.1A8.524,8.524,0,0,1,35.2,31.9Zm0,8.4a1.943,1.943,0,0,0,1.6-.8,4.617,4.617,0,0,0,.5-2.3,4.617,4.617,0,0,0-.5-2.3,2,2,0,0,0-3.2,0,4.528,4.528,0,0,0-.6,2.3,4.617,4.617,0,0,0,.5,2.3A1.879,1.879,0,0,0,35.2,40.3Z"/><path d="M50.1,30.8c-.1.1-.2.3-.3.3a.6.6,0,0,1-.4.1.9.9,0,0,1-.5-.1l-.6-.3a6.89,6.89,0,0,0-.8-.3,3.083,3.083,0,0,0-1-.1,1.955,1.955,0,0,0-1.4.4,1.433,1.433,0,0,0-.5,1.1.908.908,0,0,0,.3.7,1.794,1.794,0,0,0,.7.5c.3.1.7.3,1,.4a8.4,8.4,0,0,1,1.2.4,6.117,6.117,0,0,1,1.2.5,3.592,3.592,0,0,1,1,.7,4.129,4.129,0,0,1,.7,1.1,3.808,3.808,0,0,1,.3,1.6,4.058,4.058,0,0,1-.4,1.9,3.956,3.956,0,0,1-1,1.5,4.355,4.355,0,0,1-1.6,1,5.382,5.382,0,0,1-2.2.4,6.6,6.6,0,0,1-1.4-.1,7.366,7.366,0,0,1-1.4-.4,13.392,13.392,0,0,1-1.2-.6,3.915,3.915,0,0,1-1-.8l1-1.6.3-.3a.6.6,0,0,1,.4-.1,1.421,1.421,0,0,1,.6.2,4.348,4.348,0,0,0,.7.4,3.552,3.552,0,0,0,.9.4,3.73,3.73,0,0,0,1.2.2,1.955,1.955,0,0,0,1.4-.4,1.728,1.728,0,0,0,.5-1.3,1.135,1.135,0,0,0-.3-.8,1.794,1.794,0,0,0-.7-.5,10.376,10.376,0,0,0-1-.4,5.638,5.638,0,0,1-1.2-.4,6.117,6.117,0,0,1-1.2-.5,2.539,2.539,0,0,1-1-.8,4.728,4.728,0,0,1-.7-1.2,4.309,4.309,0,0,1-.3-1.7,4.529,4.529,0,0,1,.3-1.6,3.316,3.316,0,0,1,1-1.4,8.636,8.636,0,0,1,1.6-1,4.638,4.638,0,0,1,2.1-.4,5.7,5.7,0,0,1,1.3.1l1.2.3a5.359,5.359,0,0,1,1.1.5l.9.6Z"/><path d="M57.3,31.9a5.822,5.822,0,0,1,1.9.3,3.766,3.766,0,0,1,1.5.9,5.6,5.6,0,0,1,1,1.5,4.433,4.433,0,0,1,.3,2v.6c0,.1-.1.3-.1.4l-.2.2c-.1,0-.2.1-.3.1h-6a3.055,3.055,0,0,0,.8,1.9,2.352,2.352,0,0,0,1.7.6,2.22,2.22,0,0,0,.9-.1c.2-.1.5-.2.7-.3l.6-.3a.9.9,0,0,1,.5-.1.864.864,0,0,1,.6.3l.9,1.1a4.064,4.064,0,0,1-1,.9,9.744,9.744,0,0,1-1.1.5l-1.2.3c-.4,0-.8.1-1.1.1a5.222,5.222,0,0,1-2.1-.4,4.517,4.517,0,0,1-1.7-1.1,3.858,3.858,0,0,1-1.1-1.7,6.051,6.051,0,0,1-.4-2.4,4.477,4.477,0,0,1,.4-2,4.355,4.355,0,0,1,1-1.6,4.569,4.569,0,0,1,1.6-1.1A2.313,2.313,0,0,1,57.3,31.9Zm0,2.1a1.978,1.978,0,0,0-1.4.5,2.633,2.633,0,0,0-.7,1.5h3.9a1.7,1.7,0,0,0-.1-.7l-.3-.6a.918.918,0,0,0-.6-.4A.984.984,0,0,0,57.3,34Z"/><path d="M66.7,27.4v15H63.6v-15h3.1Z"/><path d="M72.2,27.4v15H69v-15h3.2Z"/><path d="M77.4,42.4v-15h5.5a9.78,9.78,0,0,1,2.6.3,7.5,7.5,0,0,1,1.8.8,2.56,2.56,0,0,1,1,1.3,4.671,4.671,0,0,1,.3,1.7,3.4,3.4,0,0,1-.1,1,2.044,2.044,0,0,1-.5.9,2.7,2.7,0,0,1-.8.7,6.658,6.658,0,0,1-1.2.6,3.637,3.637,0,0,1,2.2,1.2,2.817,2.817,0,0,1,.7,2.1,3.922,3.922,0,0,1-.4,1.8,3.815,3.815,0,0,1-1.1,1.4,7.677,7.677,0,0,1-1.8,1,6.092,6.092,0,0,1-2.4.3H77.4Zm3.5-8.7h1.8a3.083,3.083,0,0,0,1-.1,6.89,6.89,0,0,0,.8-.3,1.024,1.024,0,0,0,.5-.6,2.388,2.388,0,0,0,.2-.9,2.22,2.22,0,0,0-.1-.9,2.092,2.092,0,0,0-.4-.6A4.875,4.875,0,0,0,84,30a3.083,3.083,0,0,0-1-.1H81v3.8Zm0,2.3v3.7h2.4a3.087,3.087,0,0,0,1.1-.2,1.794,1.794,0,0,0,.7-.5.864.864,0,0,0,.3-.6,1.7,1.7,0,0,0,.1-.7,1.483,1.483,0,0,0-.1-.7,2.092,2.092,0,0,0-.4-.6.908.908,0,0,0-.7-.3,2.509,2.509,0,0,0-1-.1Z"/><path d="M95.7,31.5a5.381,5.381,0,0,1,2.2.4,4.832,4.832,0,0,1,2.8,2.8,5.558,5.558,0,0,1,.4,2.3,5.558,5.558,0,0,1-.4,2.3A4.181,4.181,0,0,1,99.6,41a7.119,7.119,0,0,1-1.7,1.1,5.382,5.382,0,0,1-2.2.4,5.087,5.087,0,0,1-2.2-.4A4.991,4.991,0,0,1,91.8,41a4.517,4.517,0,0,1-1.1-1.7,7.308,7.308,0,0,1-.4-2.3,5.867,5.867,0,0,1,.4-2.3A4.181,4.181,0,0,1,91.8,33a6.191,6.191,0,0,1,1.7-1.1A7.19,7.19,0,0,1,95.7,31.5Zm0,8.7a1.816,1.816,0,0,0,1.6-.8,4.772,4.772,0,0,0,.5-2.4,5.053,5.053,0,0,0-.5-2.4,1.816,1.816,0,0,0-1.6-.8,2,2,0,0,0-1.7.8,4.772,4.772,0,0,0-.5,2.4,5.053,5.053,0,0,0,.5,2.4A2,2,0,0,0,95.7,40.2Z"/><path d="M107.6,31.5a5.381,5.381,0,0,1,2.2.4,4.832,4.832,0,0,1,2.8,2.8A5.558,5.558,0,0,1,113,37a5.558,5.558,0,0,1-.4,2.3,4.181,4.181,0,0,1-1.1,1.7,7.119,7.119,0,0,1-1.7,1.1,5.382,5.382,0,0,1-2.2.4,5.087,5.087,0,0,1-2.2-.4,4.991,4.991,0,0,1-1.7-1.1,4.517,4.517,0,0,1-1.1-1.7,5.558,5.558,0,0,1-.4-2.3,5.867,5.867,0,0,1,.4-2.3,4.181,4.181,0,0,1,1.1-1.7,6.191,6.191,0,0,1,1.7-1.1A7.8,7.8,0,0,1,107.6,31.5Zm0,8.7a1.816,1.816,0,0,0,1.6-.8,4.772,4.772,0,0,0,.5-2.4,5.053,5.053,0,0,0-.5-2.4,1.816,1.816,0,0,0-1.6-.8,2,2,0,0,0-1.7.8,4.772,4.772,0,0,0-.5,2.4,5.053,5.053,0,0,0,.5,2.4A2.136,2.136,0,0,0,107.6,40.2Z"/><path d="M118,27v8.6h.5a.749.749,0,0,0,.5-.1l.3-.3,2-3c.1-.2.3-.3.4-.4a1.268,1.268,0,0,1,.6-.1h2.9l-2.8,3.8c-.1.2-.3.3-.4.5-.2.1-.3.3-.5.4a2.361,2.361,0,0,1,.8.9l3,5.1h-2.9a1.268,1.268,0,0,1-.6-.1.781.781,0,0,1-.4-.4l-2-3.8q-.15-.3-.3-.3a.749.749,0,0,0-.5-.1H118v4.7h-3.2V27Z"/><path d="M130.3,28.8a1.445,1.445,0,0,1-.2.7,1.838,1.838,0,0,1-1,1,1.949,1.949,0,0,1-.8.1,1.483,1.483,0,0,1-.7-.1,1.838,1.838,0,0,1-1-1,1.7,1.7,0,0,1-.1-.7,1.483,1.483,0,0,1,.1-.7,1.838,1.838,0,0,1,1-1,1.7,1.7,0,0,1,.7-.1,2.2,2.2,0,0,1,.8.1,1.838,1.838,0,0,1,1,1A.844.844,0,0,1,130.3,28.8Zm-.3,2.9V42.4h-3.2V31.7Z"/><path d="M132.5,42.4V31.7h2a.749.749,0,0,1,.5.1,1.38,1.38,0,0,1,.3.4l.2.6a2.651,2.651,0,0,1,.6-.5,2.506,2.506,0,0,1,.7-.4c.3-.1.5-.2.8-.3a3.083,3.083,0,0,1,1-.1,3.339,3.339,0,0,1,1.5.3,4.44,4.44,0,0,1,1.1.8,5.387,5.387,0,0,1,.7,1.3,4.145,4.145,0,0,1,.2,1.6v6.8H139V35.5a1.594,1.594,0,0,0-.4-1.2,1.246,1.246,0,0,0-1.1-.4,2.958,2.958,0,0,0-1,.2l-.9.6v7.6h-3.1Z"/><path d="M148.2,31.5a5.283,5.283,0,0,1,1.3.1,3.582,3.582,0,0,1,1.1.4h3.2v1.2c0,.2,0,.3-.1.4a.764.764,0,0,1-.5.2l-.8.2a3.083,3.083,0,0,1,.1,1,3.194,3.194,0,0,1-.3,1.4,3.126,3.126,0,0,1-.9,1.1,4.58,4.58,0,0,1-1.4.7,4.954,4.954,0,0,1-1.7.2,2.483,2.483,0,0,1-.9-.1.664.664,0,0,0-.4.5c0,.2.1.3.3.4a6.372,6.372,0,0,0,.7.2,4.033,4.033,0,0,0,1.1,0,4.869,4.869,0,0,1,1.2.1,5.019,5.019,0,0,1,1.2.2,3.582,3.582,0,0,1,1.1.4,1.779,1.779,0,0,1,.7.8,4.155,4.155,0,0,1,.3,1.3,3.194,3.194,0,0,1-.3,1.4,2.94,2.94,0,0,1-1,1.2,6.8,6.8,0,0,1-1.7.9,5.592,5.592,0,0,1-2.3.3,13.785,13.785,0,0,1-2.2-.2,5.213,5.213,0,0,1-1.5-.6,2.581,2.581,0,0,1-.9-.9,2.016,2.016,0,0,1-.3-1.1,1.594,1.594,0,0,1,.4-1.2,3.6,3.6,0,0,1,1.2-.8l-.6-.6a2.388,2.388,0,0,1-.2-.9.9.9,0,0,1,.1-.5,1.332,1.332,0,0,1,.3-.5c.1-.2.3-.3.4-.5a2.092,2.092,0,0,1,.6-.4,3.039,3.039,0,0,1-1.3-1.2,3.371,3.371,0,0,1-.5-1.7,3.194,3.194,0,0,1,.3-1.4,3.126,3.126,0,0,1,.9-1.1,6.109,6.109,0,0,1,1.4-.7A5.845,5.845,0,0,1,148.2,31.5Zm2.4,11.2a.52.52,0,0,0-.2-.4c-.1-.1-.3-.2-.4-.3a1.268,1.268,0,0,0-.6-.1h-1.7a2.769,2.769,0,0,1-.9-.1,1.205,1.205,0,0,0-.5.5,1.421,1.421,0,0,0-.2.6c0,.2,0,.3.1.4l.3.3a1.445,1.445,0,0,0,.7.2,6.1,6.1,0,0,0,2.2,0,6.372,6.372,0,0,0,.7-.2.781.781,0,0,0,.4-.4A.9.9,0,0,0,150.6,42.7Zm-2.4-6.2a1.246,1.246,0,0,0,1.1-.4,1.777,1.777,0,0,0,.4-1,1.16,1.16,0,0,0-.4-1,1.6,1.6,0,0,0-1.1-.4,1.246,1.246,0,0,0-1.1.4,1.777,1.777,0,0,0-.4,1,1.268,1.268,0,0,0,.1.6c.1.2.1.3.3.4a2.186,2.186,0,0,0,.5.3C147.7,36.4,148,36.5,148.2,36.5Z"/><path d="M6.9-9.015a.611.611,0,0,1-.157.188.348.348,0,0,1-.21.06.55.55,0,0,1-.307-.124q-.173-.124-.431-.278a3.339,3.339,0,0,0-.619-.277,2.664,2.664,0,0,0-.862-.124,2.525,2.525,0,0,0-.829.124,1.745,1.745,0,0,0-.6.337,1.41,1.41,0,0,0-.364.5A1.573,1.573,0,0,0,2.4-7.98a1.139,1.139,0,0,0,.221.72,1.905,1.905,0,0,0,.581.487,4.569,4.569,0,0,0,.817.352q.457.15.938.311a9.489,9.489,0,0,1,.938.371,3.3,3.3,0,0,1,.818.529,2.433,2.433,0,0,1,.581.78A2.6,2.6,0,0,1,7.515-3.3a3.629,3.629,0,0,1-.244,1.335A3.139,3.139,0,0,1,6.563-.878a3.294,3.294,0,0,1-1.144.731A4.194,4.194,0,0,1,3.878.12a4.93,4.93,0,0,1-1-.1A4.953,4.953,0,0,1,1.95-.266a4.636,4.636,0,0,1-.814-.442A4.019,4.019,0,0,1,.458-1.29l.458-.765a.614.614,0,0,1,.161-.15.388.388,0,0,1,.214-.06.618.618,0,0,1,.364.165q.206.165.51.364a3.943,3.943,0,0,0,.727.364,2.85,2.85,0,0,0,1.031.165,2.768,2.768,0,0,0,.885-.131,1.813,1.813,0,0,0,.656-.375A1.631,1.631,0,0,0,5.873-2.3a1.986,1.986,0,0,0,.142-.765A1.284,1.284,0,0,0,5.8-3.84a1.773,1.773,0,0,0-.578-.5A4.23,4.23,0,0,0,4.4-4.687q-.458-.143-.937-.3a9.4,9.4,0,0,1-.937-.356,3.041,3.041,0,0,1-.817-.529,2.392,2.392,0,0,1-.578-.818A2.99,2.99,0,0,1,.915-7.9,2.878,2.878,0,0,1,1.14-9.015,2.831,2.831,0,0,1,1.8-9.971a3.229,3.229,0,0,1,1.061-.667A3.864,3.864,0,0,1,4.3-10.89a4.669,4.669,0,0,1,1.669.289,3.869,3.869,0,0,1,1.324.829ZM11.235.12A1.882,1.882,0,0,1,9.814-.4a2.044,2.044,0,0,1-.5-1.477v-4.56H8.43a.305.305,0,0,1-.214-.079A.3.3,0,0,1,8.13-6.75v-.592l1.238-.173L9.7-9.788a.353.353,0,0,1,.116-.2.336.336,0,0,1,.221-.071h.743V-7.5h2.16v1.065h-2.16v4.463A.913.913,0,0,0,11-1.3a.767.767,0,0,0,.566.221,1.034,1.034,0,0,0,.349-.053,1.39,1.39,0,0,0,.251-.116q.105-.064.18-.116a.244.244,0,0,1,.135-.052.179.179,0,0,1,.116.034.421.421,0,0,1,.086.109l.435.7a2.527,2.527,0,0,1-.855.51A2.984,2.984,0,0,1,11.235.12ZM15.66-6.158a3.487,3.487,0,0,1,.885-1.178,1.892,1.892,0,0,1,1.245-.428,1.9,1.9,0,0,1,.469.056,1.207,1.207,0,0,1,.386.169l-.1,1.1a.238.238,0,0,1-.248.2,1.8,1.8,0,0,1-.315-.041,2.334,2.334,0,0,0-.45-.041,1.767,1.767,0,0,0-.622.1,1.454,1.454,0,0,0-.484.3,2.043,2.043,0,0,0-.379.488,4.88,4.88,0,0,0-.307.656V0H14.28V-7.62h.84a.464.464,0,0,1,.326.086.567.567,0,0,1,.124.3ZM22.74-7.74a4.028,4.028,0,0,1,1.519.274,3.167,3.167,0,0,1,1.155.787,3.51,3.51,0,0,1,.731,1.238A4.864,4.864,0,0,1,26.4-3.818a4.9,4.9,0,0,1-.255,1.627,3.466,3.466,0,0,1-.731,1.238,3.189,3.189,0,0,1-1.155.784A4.028,4.028,0,0,1,22.74.105a4.049,4.049,0,0,1-1.526-.274,3.225,3.225,0,0,1-1.159-.784,3.481,3.481,0,0,1-.739-1.238,4.832,4.832,0,0,1-.259-1.627,4.8,4.8,0,0,1,.259-1.624,3.525,3.525,0,0,1,.739-1.238,3.2,3.2,0,0,1,1.159-.787A4.049,4.049,0,0,1,22.74-7.74Zm0,6.705a1.868,1.868,0,0,0,1.612-.727,3.416,3.416,0,0,0,.532-2.048,3.434,3.434,0,0,0-.532-2.051,1.864,1.864,0,0,0-1.612-.731,1.89,1.89,0,0,0-1.631.731,3.416,3.416,0,0,0-.536,2.051,3.4,3.4,0,0,0,.536,2.048A1.894,1.894,0,0,0,22.74-1.035ZM29.4-6.563a5.164,5.164,0,0,1,.517-.48,3.259,3.259,0,0,1,.574-.371,3.073,3.073,0,0,1,.652-.24,3.1,3.1,0,0,1,.746-.086A2.721,2.721,0,0,1,33-7.53a2.2,2.2,0,0,1,.8.589,2.55,2.55,0,0,1,.488.911,3.966,3.966,0,0,1,.165,1.178V0h-1.47V-4.852A1.942,1.942,0,0,0,32.6-6.124a1.4,1.4,0,0,0-1.148-.454,2.178,2.178,0,0,0-1.054.266,3.511,3.511,0,0,0-.911.724V0H28.028V-7.62h.878a.357.357,0,0,1,.382.293Zm11.115,3.18A11.16,11.16,0,0,0,39-3.244a4.168,4.168,0,0,0-1.013.289,1.375,1.375,0,0,0-.562.424.919.919,0,0,0-.173.544,1.18,1.18,0,0,0,.094.491.915.915,0,0,0,.255.337,1.023,1.023,0,0,0,.379.191,1.772,1.772,0,0,0,.472.06,2.651,2.651,0,0,0,.619-.068,2.463,2.463,0,0,0,.529-.191,2.659,2.659,0,0,0,.472-.3,4.208,4.208,0,0,0,.443-.413Zm-4.29-3.173a4.359,4.359,0,0,1,1.384-.908,4.355,4.355,0,0,1,1.639-.3,2.929,2.929,0,0,1,1.155.214,2.376,2.376,0,0,1,.847.6,2.537,2.537,0,0,1,.521.915,3.731,3.731,0,0,1,.176,1.178V0H41.3a.622.622,0,0,1-.33-.071.491.491,0,0,1-.18-.266L40.628-1a6.308,6.308,0,0,1-.577.476,3.7,3.7,0,0,1-.6.352,3.045,3.045,0,0,1-.664.221,3.755,3.755,0,0,1-.78.075A2.8,2.8,0,0,1,37.166,0a1.9,1.9,0,0,1-.686-.379,1.79,1.79,0,0,1-.461-.638,2.195,2.195,0,0,1-.169-.893,1.691,1.691,0,0,1,.244-.866,2.2,2.2,0,0,1,.8-.746,5.111,5.111,0,0,1,1.44-.54,10.765,10.765,0,0,1,2.186-.24V-4.86a1.937,1.937,0,0,0-.368-1.29,1.346,1.346,0,0,0-1.08-.427,2.353,2.353,0,0,0-.806.12,3.11,3.11,0,0,0-.562.266q-.236.146-.413.266a.638.638,0,0,1-.364.12.416.416,0,0,1-.259-.082.687.687,0,0,1-.176-.2ZM50.948-7.74a4.028,4.028,0,0,1,1.519.274,3.167,3.167,0,0,1,1.155.787,3.51,3.51,0,0,1,.731,1.238,4.864,4.864,0,0,1,.255,1.624,4.9,4.9,0,0,1-.255,1.627,3.466,3.466,0,0,1-.731,1.238,3.189,3.189,0,0,1-1.155.784,4.028,4.028,0,0,1-1.519.274,4.049,4.049,0,0,1-1.526-.274,3.225,3.225,0,0,1-1.159-.784,3.481,3.481,0,0,1-.739-1.238,4.832,4.832,0,0,1-.259-1.627,4.8,4.8,0,0,1,.259-1.624,3.525,3.525,0,0,1,.739-1.238,3.2,3.2,0,0,1,1.159-.787A4.049,4.049,0,0,1,50.948-7.74Zm0,6.705a1.868,1.868,0,0,0,1.612-.727,3.416,3.416,0,0,0,.533-2.048,3.434,3.434,0,0,0-.533-2.051,1.864,1.864,0,0,0-1.612-.731,1.89,1.89,0,0,0-1.631.731A3.416,3.416,0,0,0,48.78-3.81a3.4,3.4,0,0,0,.536,2.048A1.894,1.894,0,0,0,50.948-1.035Zm6.75-.84a2.069,2.069,0,0,0,.776.66,2.249,2.249,0,0,0,.934.188,1.842,1.842,0,0,0,1.556-.724,3.441,3.441,0,0,0,.551-2.111A5.373,5.373,0,0,0,61.391-5.1a2.367,2.367,0,0,0-.36-.84,1.43,1.43,0,0,0-.581-.48,1.9,1.9,0,0,0-.78-.154,2.088,2.088,0,0,0-1.106.285,3.161,3.161,0,0,0-.866.81ZM57.623-6.48A4.6,4.6,0,0,1,58.136-7a3.242,3.242,0,0,1,.589-.405,3.071,3.071,0,0,1,.671-.262,2.982,2.982,0,0,1,.761-.094,2.684,2.684,0,0,1,1.181.255,2.473,2.473,0,0,1,.9.75,3.655,3.655,0,0,1,.581,1.222,6.148,6.148,0,0,1,.206,1.672A5.189,5.189,0,0,1,62.8-2.291a3.866,3.866,0,0,1-.653,1.256A3.03,3.03,0,0,1,61.114-.2a3.05,3.05,0,0,1-1.376.3,2.775,2.775,0,0,1-1.17-.225,2.808,2.808,0,0,1-.87-.63V2.558H56.235V-7.62h.877a.357.357,0,0,1,.382.293Zm11.145,3.1a11.16,11.16,0,0,0-1.515.139,4.168,4.168,0,0,0-1.013.289,1.375,1.375,0,0,0-.562.424.919.919,0,0,0-.173.544A1.18,1.18,0,0,0,65.6-1.5a.915.915,0,0,0,.255.337,1.023,1.023,0,0,0,.379.191,1.772,1.772,0,0,0,.473.06,2.651,2.651,0,0,0,.619-.068,2.463,2.463,0,0,0,.529-.191,2.659,2.659,0,0,0,.472-.3,4.207,4.207,0,0,0,.443-.413Zm-4.29-3.173a4.359,4.359,0,0,1,1.384-.908,4.354,4.354,0,0,1,1.639-.3,2.929,2.929,0,0,1,1.155.214,2.376,2.376,0,0,1,.848.6,2.537,2.537,0,0,1,.521.915A3.731,3.731,0,0,1,70.2-4.86V0h-.652a.622.622,0,0,1-.33-.071.491.491,0,0,1-.18-.266L68.88-1a6.307,6.307,0,0,1-.577.476,3.7,3.7,0,0,1-.6.352,3.045,3.045,0,0,1-.664.221,3.755,3.755,0,0,1-.78.075A2.8,2.8,0,0,1,65.419,0a1.9,1.9,0,0,1-.686-.379,1.79,1.79,0,0,1-.461-.638,2.195,2.195,0,0,1-.169-.893,1.691,1.691,0,0,1,.244-.866,2.2,2.2,0,0,1,.795-.746,5.111,5.111,0,0,1,1.44-.54,10.765,10.765,0,0,1,2.186-.24V-4.86A1.937,1.937,0,0,0,68.4-6.15a1.346,1.346,0,0,0-1.08-.427,2.353,2.353,0,0,0-.806.12,3.11,3.11,0,0,0-.562.266q-.236.146-.412.266a.638.638,0,0,1-.364.12.416.416,0,0,1-.259-.082.687.687,0,0,1-.176-.2Zm9.067.4a3.487,3.487,0,0,1,.885-1.178,1.892,1.892,0,0,1,1.245-.428,1.9,1.9,0,0,1,.469.056,1.207,1.207,0,0,1,.386.169l-.1,1.1a.238.238,0,0,1-.247.2,1.8,1.8,0,0,1-.315-.041,2.334,2.334,0,0,0-.45-.041,1.767,1.767,0,0,0-.622.1,1.454,1.454,0,0,0-.484.3,2.043,2.043,0,0,0-.379.488,4.88,4.88,0,0,0-.308.656V0H72.165V-7.62H73a.464.464,0,0,1,.326.086.567.567,0,0,1,.124.3ZM80.047.12A1.882,1.882,0,0,1,78.626-.4a2.044,2.044,0,0,1-.5-1.477v-4.56h-.885a.305.305,0,0,1-.214-.079.3.3,0,0,1-.086-.236v-.592l1.237-.173.33-2.272a.353.353,0,0,1,.116-.2.336.336,0,0,1,.221-.071h.743V-7.5h2.16v1.065H79.59v4.463a.913.913,0,0,0,.221.671.767.767,0,0,0,.566.221,1.034,1.034,0,0,0,.349-.053,1.39,1.39,0,0,0,.251-.116q.1-.064.18-.116a.244.244,0,0,1,.135-.052.179.179,0,0,1,.116.034.421.421,0,0,1,.086.109l.435.7a2.527,2.527,0,0,1-.855.51A2.984,2.984,0,0,1,80.047.12Zm7.14-3.5a11.16,11.16,0,0,0-1.515.139,4.168,4.168,0,0,0-1.012.289,1.375,1.375,0,0,0-.562.424.919.919,0,0,0-.173.544,1.18,1.18,0,0,0,.094.491.915.915,0,0,0,.255.337,1.023,1.023,0,0,0,.379.191,1.772,1.772,0,0,0,.472.06,2.651,2.651,0,0,0,.619-.068,2.463,2.463,0,0,0,.529-.191,2.659,2.659,0,0,0,.473-.3,4.207,4.207,0,0,0,.442-.413ZM82.9-6.555a4.36,4.36,0,0,1,1.384-.908,4.355,4.355,0,0,1,1.639-.3,2.929,2.929,0,0,1,1.155.214,2.376,2.376,0,0,1,.847.6,2.537,2.537,0,0,1,.521.915A3.731,3.731,0,0,1,88.62-4.86V0h-.652a.622.622,0,0,1-.33-.071.491.491,0,0,1-.18-.266L87.3-1a6.308,6.308,0,0,1-.577.476,3.7,3.7,0,0,1-.6.352,3.045,3.045,0,0,1-.664.221,3.755,3.755,0,0,1-.78.075A2.8,2.8,0,0,1,83.839,0a1.9,1.9,0,0,1-.686-.379,1.79,1.79,0,0,1-.461-.638,2.195,2.195,0,0,1-.169-.893,1.691,1.691,0,0,1,.244-.866,2.2,2.2,0,0,1,.795-.746A5.111,5.111,0,0,1,85-4.065a10.765,10.765,0,0,1,2.186-.24V-4.86a1.937,1.937,0,0,0-.368-1.29,1.346,1.346,0,0,0-1.08-.427,2.353,2.353,0,0,0-.806.12,3.11,3.11,0,0,0-.562.266q-.236.146-.412.266a.638.638,0,0,1-.364.12.416.416,0,0,1-.259-.082.687.687,0,0,1-.176-.2ZM97.62-7.74a4.028,4.028,0,0,1,1.519.274,3.167,3.167,0,0,1,1.155.787,3.51,3.51,0,0,1,.731,1.238,4.864,4.864,0,0,1,.255,1.624,4.9,4.9,0,0,1-.255,1.627,3.466,3.466,0,0,1-.731,1.238,3.189,3.189,0,0,1-1.155.784A4.028,4.028,0,0,1,97.62.105a4.049,4.049,0,0,1-1.526-.274,3.225,3.225,0,0,1-1.159-.784A3.481,3.481,0,0,1,94.2-2.19a4.832,4.832,0,0,1-.259-1.627A4.8,4.8,0,0,1,94.2-5.441a3.525,3.525,0,0,1,.739-1.238,3.2,3.2,0,0,1,1.159-.787A4.049,4.049,0,0,1,97.62-7.74Zm0,6.705a1.868,1.868,0,0,0,1.612-.727,3.416,3.416,0,0,0,.533-2.048,3.434,3.434,0,0,0-.533-2.051,1.864,1.864,0,0,0-1.612-.731,1.89,1.89,0,0,0-1.631.731,3.416,3.416,0,0,0-.536,2.051,3.4,3.4,0,0,0,.536,2.048A1.894,1.894,0,0,0,97.62-1.035Z" transform="translate(51 23)"/></svg>