<svg xmlns="http://www.w3.org/2000/svg" width="109" height="36" viewBox="0 0 109 36">
  <g id="poweredby_IdoBooking_onblack" transform="translate(-1100.25 -322)">
    <rect id="Rectangle_1105" data-name="Rectangle 1105" width="109" height="36" rx="4" transform="translate(1100.25 322)" fill="#111"/>
    <g id="Group_1295" data-name="Group 1295" transform="translate(283.324 55)">
      <path id="Path_2164" data-name="Path 2164" d="M.912,0h.941V-2.48h1.51A2.025,2.025,0,0,0,5.472-4.608a2,2,0,0,0-2.109-2.1H.912Zm.941-3.3V-5.89H3.221A1.186,1.186,0,0,1,4.513-4.608,1.21,1.21,0,0,1,3.211-3.3Zm4.285.883A2.517,2.517,0,0,0,8.731.114a2.517,2.517,0,0,0,2.594-2.527A2.508,2.508,0,0,0,8.731-4.921,2.508,2.508,0,0,0,6.137-2.413Zm.941,0a1.656,1.656,0,0,1,1.653-1.71,1.65,1.65,0,0,1,1.653,1.71A1.661,1.661,0,0,1,8.731-.684,1.666,1.666,0,0,1,7.078-2.413ZM13.4,0h1.026l.988-3.088c.076-.247.133-.523.133-.523h.019s.057.276.133.523L16.7,0h1.017l1.549-4.807H18.3L17.29-1.435a3.868,3.868,0,0,0-.114.513h-.019s-.057-.266-.133-.513L15.989-4.8h-.846L14.1-1.435a5,5,0,0,0-.123.513h-.019c-.009,0-.047-.266-.123-.513l-1-3.373h-.979Zm6.412-2.4A2.448,2.448,0,0,0,22.363.114,2.861,2.861,0,0,0,24.225-.57l-.38-.675a2.292,2.292,0,0,1-1.425.561,1.571,1.571,0,0,1-1.653-1.587h3.505s.028-.275.028-.4a2.046,2.046,0,0,0-2.08-2.251A2.356,2.356,0,0,0,19.817-2.4Zm.979-.56A1.377,1.377,0,0,1,22.2-4.19a1.134,1.134,0,0,1,1.159,1.226ZM25.422,0h.921V-1.967a2.921,2.921,0,0,1,.114-.864,1.458,1.458,0,0,1,1.349-1.131,1.327,1.327,0,0,1,.266.028v-.912a1.635,1.635,0,0,0-.237-.019,1.643,1.643,0,0,0-1.52,1.254H26.3a3.448,3.448,0,0,0,.019-.361v-.836h-.893Zm3.2-2.4A2.448,2.448,0,0,0,31.17.114,2.861,2.861,0,0,0,33.032-.57l-.38-.675a2.292,2.292,0,0,1-1.425.561,1.571,1.571,0,0,1-1.653-1.587h3.506s.028-.275.028-.4a2.046,2.046,0,0,0-2.081-2.251A2.356,2.356,0,0,0,28.624-2.4Zm.979-.56A1.377,1.377,0,0,1,31.008-4.19a1.134,1.134,0,0,1,1.159,1.226Zm4.313.56c0,1.492.817,2.518,2.118,2.518a1.684,1.684,0,0,0,1.577-.893h.019s-.01.133-.01.323V0h.874V-6.707h-.921v2.223a2.721,2.721,0,0,0,.019.323h-.019a1.6,1.6,0,0,0-1.482-.76A2.241,2.241,0,0,0,33.915-2.4Zm.94,0c0-1.093.627-1.72,1.387-1.72.912,0,1.359.855,1.359,1.71,0,1.226-.675,1.729-1.387,1.729C35.416-.684,34.855-1.359,34.855-2.4ZM42.38,0h.874V-.352a3.225,3.225,0,0,0-.019-.361h.019a1.728,1.728,0,0,0,1.51.827A2.253,2.253,0,0,0,46.949-2.4c0-1.492-.817-2.517-2.109-2.517A1.7,1.7,0,0,0,43.3-4.1h-.019s.019-.171.019-.409V-6.707H42.38Zm.893-2.385c0-1.225.665-1.729,1.387-1.729.8,0,1.359.674,1.359,1.72,0,1.092-.627,1.72-1.387,1.72C43.719-.675,43.273-1.53,43.273-2.385ZM47.405,1.7A1.682,1.682,0,0,0,48.336,2,1.652,1.652,0,0,0,49.894.865l2.251-5.672h-1L49.98-1.653c-.086.247-.162.57-.162.57H49.8s-.086-.332-.181-.58L48.412-4.807H47.377l2.014,4.75-.237.551a.982.982,0,0,1-.865.7,1.072,1.072,0,0,1-.561-.2Z" transform="translate(824.019 280)" fill="#fff"/>
      <g id="Group_8" data-name="Group 8" transform="translate(751.475 8.856)">
        <circle id="Ellipse_3" data-name="Ellipse 3" cx="2.201" cy="2.201" r="2.201" transform="translate(164.594 282.784)" fill="#ffb82a"/>
        <path id="Path_22" data-name="Path 22" d="M-2598.19-5812.708l-.138-.071.679-1.614.162.087a5.46,5.46,0,0,0,2.3.563c.961,0,2.575-.294,2.575-2.266v-.683a2.957,2.957,0,0,1-2.421,1.021,3.744,3.744,0,0,1-2.971-1.341,5.072,5.072,0,0,1-1.069-3.264,4.915,4.915,0,0,1,1.033-3.206,3.671,3.671,0,0,1,2.92-1.3,3.611,3.611,0,0,1,2.248.677,2.7,2.7,0,0,1,.327.3v-.768h1.927v8.478a4.415,4.415,0,0,1-.39,1.9,3.493,3.493,0,0,1-1.037,1.287,5.1,5.1,0,0,1-3.109.941A6.921,6.921,0,0,1-2598.19-5812.708Zm1.134-7.6c0,1.741.923,2.867,2.353,2.867a1.908,1.908,0,0,0,1.475-.589,3.232,3.232,0,0,0,.655-2.226,3.027,3.027,0,0,0-.669-2.187,2.161,2.161,0,0,0-1.615-.559C-2596.255-5823.005-2597.057-5822.023-2597.057-5820.311Zm-34.966,3.612a4.638,4.638,0,0,1-1.42-3.389,4.585,4.585,0,0,1,1.42-3.366,4.936,4.936,0,0,1,3.424-1.325,4.936,4.936,0,0,1,3.425,1.325,4.587,4.587,0,0,1,1.42,3.366,4.638,4.638,0,0,1-1.42,3.389,4.918,4.918,0,0,1-3.425,1.336A4.915,4.915,0,0,1-2632.023-5816.7Zm.609-3.389a2.855,2.855,0,0,0,2.815,2.952,2.823,2.823,0,0,0,2.815-2.952,2.8,2.8,0,0,0-2.815-2.917A2.8,2.8,0,0,0-2631.414-5820.088Zm-11.3,3.389a4.639,4.639,0,0,1-1.42-3.389,4.584,4.584,0,0,1,1.421-3.366,4.932,4.932,0,0,1,3.424-1.325,4.934,4.934,0,0,1,3.424,1.325,4.585,4.585,0,0,1,1.421,3.366,4.64,4.64,0,0,1-1.42,3.389,4.918,4.918,0,0,1-3.425,1.336A4.917,4.917,0,0,1-2642.715-5816.7Zm.609-3.389a2.855,2.855,0,0,0,2.815,2.952,2.823,2.823,0,0,0,2.815-2.952,2.8,2.8,0,0,0-2.815-2.917A2.8,2.8,0,0,0-2642.106-5820.088Zm39.456,4.519v-5.341c0-1.206-.251-2.01-1.478-2.01a2.664,2.664,0,0,0-2.581,2,3.894,3.894,0,0,0-.131,1.119v4.228h-2v-9h1.944v1.334a3.738,3.738,0,0,1,3.09-1.54,3.028,3.028,0,0,1,2.38.889,3.8,3.8,0,0,1,.768,2.6v5.718Zm-10.453,0v-9h2v9Zm-3.42,0-2.6-4.078h-.993v4.078h-2V-5828h2v6.615h.966l2.364-3.188h2.3l-3.021,4.01,3.324,4.994Zm-37.5,0V-5828h4.4a4,4,0,0,1,2.629.85,3.032,3.032,0,0,1,1.05,2.4,3.246,3.246,0,0,1-.43,1.65,2.876,2.876,0,0,1-.891.939,3.123,3.123,0,0,1,1.8,2.98,3.358,3.358,0,0,1-1.209,2.706,4.5,4.5,0,0,1-2.847.9Zm2.03-1.806h2.558a1.762,1.762,0,0,0,1.907-1.891,1.8,1.8,0,0,0-1.924-1.907h-2.541Zm0-5.536h2.369a1.554,1.554,0,0,0,1.615-1.666,1.5,1.5,0,0,0-1.649-1.615h-2.335Zm-28.007,7.342V-5828h2.03v12.431Zm66.88-10.4V-5828h2.013v2.03Z" transform="translate(2753.457 6102.584)" fill="#fff"/>
        <path id="Path_23" data-name="Path 23" d="M-2660.011-5816.7a4.638,4.638,0,0,1-1.42-3.389,4.585,4.585,0,0,1,1.42-3.366,4.936,4.936,0,0,1,3.424-1.325,4.937,4.937,0,0,1,3.425,1.325,4.585,4.585,0,0,1,1.42,3.366,4.638,4.638,0,0,1-1.42,3.389,4.917,4.917,0,0,1-3.425,1.336A4.917,4.917,0,0,1-2660.011-5816.7Zm.609-3.389a2.855,2.855,0,0,0,2.815,2.952,2.823,2.823,0,0,0,2.815-2.952,2.8,2.8,0,0,0-2.815-2.917A2.8,2.8,0,0,0-2659.4-5820.088Zm-11.191,3.4a5.228,5.228,0,0,1-1.069-3.386,5.078,5.078,0,0,1,1.143-3.415,3.724,3.724,0,0,1,1.3-.956,4.054,4.054,0,0,1,1.649-.336,3.38,3.38,0,0,1,2.194.723,2.758,2.758,0,0,1,.312.3V-5828h2v12.431h-1.909v-1.027a3.18,3.18,0,0,1-.358.384,3.389,3.389,0,0,1-2.337.849A3.66,3.66,0,0,1-2670.593-5816.686Zm.961-3.386c0,1.756.917,2.936,2.284,2.936,1.128,0,2.335-.776,2.335-2.952,0-1.406-.715-2.917-2.285-2.917C-2668.693-5823.005-2669.632-5821.827-2669.632-5820.072Z" transform="translate(2749.196 6102.584)" fill="#ffb82a"/>
      </g>
    </g>
  </g>
</svg>
